<svg width="200" height="125" xmlns="http://www.w3.org/2000/svg">
    <path fill="#ffdd56" d="M -2.0420352248333655 -0.0 L -2.0216148725850323 -7.854989989140165e-05 L -2.0216148725850323 -0.06274296825636519 L -2.0420352248333655 -0.0 Z M -2.0216148725850323 -7.854989989140165e-05 L -2.001194520336698 -0.018482817688854326 L -2.001194520336698 -0.10709822136977243 L -2.0216148725850323 -0.06274296825636519 Z M -2.001194520336698 -0.018482817688854326 L -1.9807741680883646 -0.03984826199755935 L -1.9807741680883646 -0.14836836463946929 L -2.001194520336698 -0.10709822136977243 Z M -1.9807741680883646 -0.03984826199755935 L -1.9603538158400309 -0.06268814221165249 L -1.9603538158400309 -0.18797832491695604 L -1.9807741680883646 -0.14836836463946929 Z M -1.9603538158400309 -0.06268814221165249 L -1.9399334635916974 -0.08640808798850622 L -1.9399334635916974 -0.22646084209195552 L -1.9603538158400309 -0.18797832491695604 Z M -1.9399334635916974 -0.08640808798850622 L -1.9195131113433637 -0.11068861882917198 L -1.9195131113433637 -0.26407401034227723 L -1.9399334635916974 -0.22646084209195552 Z M -1.9195131113433637 -0.11068861882917198 L -1.89909275909503 -0.13532781745154104 L -1.89909275909503 -0.3009586653415441 L -1.9195131113433637 -0.26407401034227723 Z M -1.89909275909503 -0.13532781745154104 L -1.8786724068466965 -0.16018380207592425 L -1.8786724068466965 -0.33719597225378534 L -1.89909275909503 -0.3009586653415441 Z M -1.8786724068466965 -0.16018380207592425 L -1.8582520545983625 -0.18514907389958027 L -1.8582520545983625 -0.3728331381788783 L -1.8786724068466965 -0.33719597225378534 Z M -1.8582520545983625 -0.18514907389958027 L -1.837831702350029 -0.21013750173357898 L -1.837831702350029 -0.4078964870163158 L -1.8582520545983625 -0.3728331381788783 Z M -1.837831702350029 -0.21013750173357898 L -1.8174113501016955 -0.23507708498209717 L -1.8174113501016955 -0.4423987555084857 L -1.837831702350029 -0.4078964870163158 Z M -1.8174113501016955 -0.23507708498209717 L -1.7969909978533616 -0.25990564416307166 L -1.7969909978533616 -0.4763434612062842 L -1.8174113501016955 -0.4423987555084857 Z M -1.7969909978533616 -0.25990564416307166 L -1.776570645605028 -0.2845681146544473 L -1.776570645605028 -0.5097276666151139 L -1.7969909978533616 -0.4763434612062842 Z M -1.776570645605028 -0.2845681146544473 L -1.7561502933566944 -0.3090147738926055 L -1.7561502933566944 -0.54254380923754 L -1.776570645605028 -0.5097276666151139 Z M -1.7561502933566944 -0.3090147738926055 L -1.7357299411083607 -0.33320003968166767 L -1.7357299411083607 -0.5747809597974258 L -1.7561502933566944 -0.54254380923754 Z M -1.7357299411083607 -0.33320003968166767 L -1.7153095888600272 -0.3570816325374439 L -1.7153095888600272 -0.6064257156659868 L -1.7357299411083607 -0.5747809597974258 Z M -1.7153095888600272 -0.3570816325374439 L -1.6948892366116934 -0.38061997819870785 L -1.6948892366116934 -0.6374628533020348 L -1.7153095888600272 -0.6064257156659868 Z M -1.6948892366116934 -0.38061997819870785 L -1.67446888436336 -0.403777773295942 L -1.67446888436336 -0.6678758166620513 L -1.6948892366116934 -0.6374628533020348 Z M -1.67446888436336 -0.403777773295942 L -1.654048532115026 -0.4265196646873644 L -1.654048532115026 -0.6976470910168968 L -1.67446888436336 -0.6678758166620513 Z M -1.654048532115026 -0.4265196646873644 L -1.6336281798666925 -0.4488120097296179 L -1.6336281798666925 -0.7267584948553284 L -1.654048532115026 -0.6976470910168968 Z M -1.6336281798666925 -0.4488120097296179 L -1.613207827618359 -0.4706226952807915 L -1.613207827618359 -0.7551914120251613 L -1.6336281798666925 -0.7267584948553284 Z M -1.613207827618359 -0.4706226952807915 L -1.592787475370025 -0.4919210000360013 L -1.592787475370025 -0.7829269794613782 L -1.613207827618359 -0.7551914120251613 Z M -1.592787475370025 -0.4919210000360013 L -1.5723671231216916 -0.5126774892991144 L -1.5723671231216916 -0.8099462413481893 L -1.592787475370025 -0.7829269794613782 Z M -1.5723671231216916 -0.5126774892991144 L -1.5519467708733576 -0.5328639343413554 L -1.5519467708733576 -0.8362302775160219 L -1.5723671231216916 -0.8099462413481893 Z M -1.5519467708733576 -0.5328639343413554 L -1.5315264186250241 -0.5524532506002136 L -1.5315264186250241 -0.8617603117728814 L -1.5519467708733576 -0.8362302775160219 Z M -1.5315264186250241 -0.5524532506002136 L -1.5111060663766906 -0.5714194504490332 L -1.5111060663766906 -0.8865178043937899 L -1.5315264186250241 -0.8617603117728814 Z M -1.5111060663766906 -0.5714194504490332 L -1.490685714128357 -0.5897376073219489 L -1.490685714128357 -0.9104845319389703 L -1.5111060663766906 -0.8865178043937899 Z M -1.490685714128357 -0.5897376073219489 L -1.470265361880023 -0.6073838287425836 L -1.470265361880023 -0.9336426568089949 L -1.490685714128357 -0.9104845319389703 Z M -1.470265361880023 -0.6073838287425836 L -1.4498450096316895 -0.6243352363657262 L -1.4498450096316895 -0.9559747883856544 L -1.470265361880023 -0.9336426568089949 Z M -1.4498450096316895 -0.6243352363657262 L -1.429424657383356 -0.6405699515581569 L -1.429424657383356 -0.977464037191738 L -1.4498450096316895 -0.9559747883856544 Z M -1.429424657383356 -0.6405699515581569 L -1.4090043051350223 -0.6560670853583775 L -1.4090043051350223 -0.9980940631907459 L -1.429424657383356 -0.977464037191738 Z M -1.4090043051350223 -0.6560670853583775 L -1.3885839528866886 -0.6708067318934037 L -1.3885839528866886 -1.0178491191106265 L -1.4090043051350223 -0.9980940631907459 Z M -1.3885839528866886 -0.6708067318934037 L -1.3681636006383546 -0.6847699645138271 L -1.3681636006383546 -1.03671408949406 L -1.3885839528866886 -1.0178491191106265 Z M -1.3681636006383546 -0.6847699645138271 L -1.3477432483900211 -0.6979388340502592 L -1.3477432483900211 -1.0546745260374681 L -1.3681636006383546 -1.03671408949406 Z M -1.3477432483900211 -0.6979388340502592 L -1.3273228961416876 -0.7102963687052107 L -1.3273228961416876 -1.0717166796715247 L -1.3477432483900211 -1.0546745260374681 Z M -1.3273228961416876 -0.7102963687052107 L -1.3069025438933541 -0.7218265751819772 L -1.3069025438933541 -1.087827529750062 L -1.3273228961416876 -1.0717166796715247 Z M -1.3069025438933541 -0.7218265751819772 L -1.2864821916450204 -0.7325144407216375 L -1.2864821916450204 -1.1029948106463245 L -1.3069025438933541 -1.087827529750062 Z M -1.2864821916450204 -0.7325144407216375 L -1.2660618393966865 -0.7423459357749944 L -1.2660618393966865 -1.1172070360015085 L -1.2864821916450204 -1.1029948106463245 Z M -1.2660618393966865 -0.7423459357749944 L -1.245641487148353 -0.751308017081218 L -1.245641487148353 -1.1304535208272333 L -1.2660618393966865 -1.1172070360015085 Z M -1.245641487148353 -0.751308017081218 L -1.2252211349000193 -0.7593886309614869 L -1.2252211349000193 -1.14272440162882 L -1.245641487148353 -1.1304535208272333 Z M -1.2252211349000193 -0.7593886309614869 L -1.2048007826516858 -0.7665767166657907 L -1.2048007826516858 -1.1540106546880953 L -1.2252211349000193 -1.14272440162882 Z M -1.2048007826516858 -0.7665767166657907 L -1.184380430403352 -0.7728622096356674 L -1.184380430403352 -1.1643041126215947 L -1.2048007826516858 -1.1540106546880953 Z M -1.184380430403352 -0.7728622096356674 L -1.1639600781550183 -0.7782360445660569 L -1.1639600781550183 -1.173597479311438 L -1.184380430403352 -1.1643041126215947 Z M -1.1639600781550183 -0.7782360445660569 L -1.1435397259066846 -0.7826901581664645 L -1.1435397259066846 -1.181884343290913 L -1.1639600781550183 -1.173597479311438 Z M -1.1435397259066846 -0.7826901581664645 L -1.1231193736583511 -0.786217491535934 L -1.1231193736583511 -1.1891591896543416 L -1.1435397259066846 -1.181884343290913 Z M -1.1231193736583511 -0.786217491535934 L -1.1026990214100174 -0.7888119920784025 L -1.1026990214100174 -1.1954174105505533 L -1.1231193736583511 -1.1891591896543416 Z M -1.1026990214100174 -0.7888119920784025 L -1.082278669161684 -0.7904686148952924 L -1.082278669161684 -1.2006553143108676 L -1.1026990214100174 -1.1954174105505533 Z M -1.082278669161684 -0.7904686148952924 L -1.0618583169133502 -0.7911833236009891 L -1.0618583169133502 -1.204870133255554 L -1.082278669161684 -1.2006553143108676 Z M -1.0618583169133502 -0.7911833236009891 L -1.0414379646650163 -0.7909530905144255 L -1.0414379646650163 -1.2080600302170377 L -1.0618583169133502 -1.204870133255554 Z M -1.0414379646650163 -0.7909530905144255 L -1.0210176124166828 -0.7897758961865714 L -1.0210176124166828 -1.2102241038134287 L -1.0414379646650163 -1.2080600302170377 Z M -1.0210176124166828 -0.7897758961865714 L -1.000597260168349 -0.7876507282293486 L -1.000597260168349 -1.2113623925021146 L -1.0210176124166828 -1.2102241038134287 Z M -1.000597260168349 -0.7876507282293486 L -0.9801769079200154 -0.7845775794165263 L -0.9801769079200154 -1.2114758774400167 L -1.000597260168349 -1.2113623925021146 Z M -0.9801769079200154 -0.7845775794165263 L -0.9597565556716817 -0.7805574450315995 L -0.9597565556716817 -1.2105664841745605 L -0.9801769079200154 -1.2114758774400167 Z M -0.9597565556716817 -0.7805574450315995 L -0.939336203423348 -0.7755923194416013 L -0.939336203423348 -1.2086370831873543 L -0.9597565556716817 -1.2105664841745605 Z M -0.939336203423348 -0.7755923194416013 L -0.9189158511750144 -0.7696851918793406 L -0.9189158511750144 -1.2056914893109347 L -0.939336203423348 -1.2086370831873543 Z M -0.9189158511750144 -0.7696851918793406 L -0.8984954989266807 -0.7628400414197369 L -0.8984954989266807 -1.2017344600376403 L -0.9189158511750144 -1.2056914893109347 Z M -0.8984954989266807 -0.7628400414197369 L -0.8780751466783473 -0.755061831138809 L -0.8780751466783473 -1.196771692738686 L -0.8984954989266807 -1.2017344600376403 Z M -0.8780751466783473 -0.755061831138809 L -0.8576547944300136 -0.7463565014464935 L -0.8576547944300136 -1.190809820810769 L -0.8780751466783473 -1.196771692738686 Z M -0.8576547944300136 -0.7463565014464935 L -0.8372344421816801 -0.7367309625868825 L -0.8372344421816801 -1.1838564087670038 L -0.8576547944300136 -1.190809820810769 Z M -0.8372344421816801 -0.7367309625868825 L -0.8168140899333463 -0.7261930863016702 L -0.8168140899333463 -1.1759199462886372 L -0.8372344421816801 -1.1838564087670038 Z M -0.8168140899333463 -0.7261930863016702 L -0.7963937376850125 -0.7147516966546559 L -0.7963937376850125 -1.167009841253795 L -0.8168140899333463 -1.1759199462886372 Z M -0.7963937376850125 -0.7147516966546559 L -0.775973385436679 -0.7024165600170459 L -0.775973385436679 -1.1571364117594571 L -0.7963937376850125 -1.167009841253795 Z M -0.775973385436679 -0.7024165600170459 L -0.7555530331883452 -0.6891983742150771 L -0.7555530331883452 -1.1463108771528852 L -0.775973385436679 -1.1571364117594571 Z M -0.7555530331883452 -0.6891983742150771 L -0.7351326809400115 -0.6751087568431502 L -0.7351326809400115 -1.1345453480888887 L -0.7555530331883452 -1.1463108771528852 Z M -0.7351326809400115 -0.6751087568431502 L -0.714712328691678 -0.6601602327472214 L -0.714712328691678 -1.1218528156295144 L -0.7351326809400115 -1.1345453480888887 Z M -0.714712328691678 -0.6601602327472214 L -0.6942919764433442 -0.6443662206846855 L -0.6942919764433442 -1.1082471394030415 L -0.714712328691678 -1.1218528156295144 Z M -0.6942919764433442 -0.6443662206846855 L -0.6738716241950106 -0.6277410191683831 L -0.6738716241950106 -1.093743034839504 L -0.6942919764433442 -1.1082471394030415 Z M -0.6738716241950106 -0.6277410191683831 L -0.6534512719466767 -0.6102997915036824 L -0.6534512719466767 -1.0783560595003474 L -0.6738716241950106 -1.093743034839504 Z M -0.6534512719466767 -0.6102997915036824 L -0.6330309196983435 -0.5920585500288685 L -0.6330309196983435 -1.0621025985202555 L -0.6534512719466767 -1.0783560595003474 Z M -0.6330309196983435 -0.5920585500288685 L -0.6126105674500096 -0.5730341395702541 L -0.6126105674500096 -1.0449998491796408 L -0.6330309196983435 -1.0621025985202555 Z M -0.6126105674500096 -0.5730341395702541 L -0.5921902152016761 -0.553244220124602 L -0.5921902152016761 -1.027065804626779 L -0.6126105674500096 -1.0449998491796408 Z M -0.5921902152016761 -0.553244220124602 L -0.5717698629533423 -0.5327072487825213 L -0.5717698629533423 -1.0083192367690572 L -0.5921902152016761 -1.027065804626779 Z M -0.5717698629533423 -0.5327072487825213 L -0.5513495107050085 -0.511442460907579 L -0.5513495107050085 -0.9887796783533397 L -0.5717698629533423 -1.0083192367690572 Z M -0.5513495107050085 -0.511442460907579 L -0.5309291584566752 -0.489469850586855 L -0.5309291584566752 -0.9684674042559686 L -0.5513495107050085 -0.9887796783533397 Z M -0.5309291584566752 -0.489469850586855 L -0.5105088062083414 -0.4668101503696437 L -0.5105088062083414 -0.9474034120034515 L -0.5309291584566752 -0.9684674042559686 Z M -0.5105088062083414 -0.4668101503696437 L -0.49008845396000755 -0.4434848103119419 L -0.49008845396000755 -0.925609401545435 L -0.5105088062083414 -0.9474034120034515 Z M -0.49008845396000755 -0.4434848103119419 L -0.469668101711674 -0.4195159763452271 L -0.469668101711674 -0.9031077543020766 L -0.49008845396000755 -0.925609401545435 Z M -0.469668101711674 -0.4195159763452271 L -0.4492477494633402 -0.394926467988901 L -0.4492477494633402 -0.879921511508478 L -0.469668101711674 -0.9031077543020766 Z M -0.4492477494633402 -0.394926467988901 L -0.4288273972150067 -0.36973975542658744 L -0.4288273972150067 -0.8560743518793653 L -0.4492477494633402 -0.879921511508478 Z M -0.4288273972150067 -0.36973975542658744 L -0.4084070449666731 -0.34397993596723986 L -0.4084070449666731 -0.8315905686177066 L -0.4288273972150067 -0.8560743518793653 Z M -0.4084070449666731 -0.34397993596723986 L -0.3879866927183393 -0.3176717099127794 L -0.3879866927183393 -0.8064950457914816 L -0.4084070449666731 -0.8315905686177066 Z M -0.3879866927183393 -0.3176717099127794 L -0.36756634047000575 -0.29084035585468726 L -0.36756634047000575 -0.780813234103306 L -0.3879866927183393 -0.8064950457914816 Z M -0.36756634047000575 -0.29084035585468726 L -0.3471459882216719 -0.26351170542265456 L -0.3471459882216719 -0.7545711260780876 L -0.36756634047000575 -0.780813234103306 Z M -0.3471459882216719 -0.26351170542265456 L -0.32672563597333865 -0.23571211750905494 L -0.32672563597333865 -0.7277952306943762 L -0.3471459882216719 -0.7545711260780876 Z M -0.32672563597333865 -0.23571211750905494 L -0.3063052837250048 -0.20746845199360023 L -0.3063052837250048 -0.7005125474854935 L -0.32672563597333865 -0.7277952306943762 Z M -0.3063052837250048 -0.20746845199360023 L -0.285884931476671 -0.17880804299315528 L -0.285884931476671 -0.6727505401369898 L -0.3063052837250048 -0.7005125474854935 Z M -0.285884931476671 -0.17880804299315528 L -0.2654645792283375 -0.14975867166220624 L -0.2654645792283375 -0.644537109607355 L -0.285884931476671 -0.6727505401369898 Z M -0.2654645792283375 -0.14975867166220624 L -0.24504422698000364 -0.12034853857002814 L -0.24504422698000364 -0.6159005667993274 L -0.2654645792283375 -0.644537109607355 Z M -0.24504422698000364 -0.12034853857002814 L -0.2246238747316704 -0.09060623568108023 L -0.2246238747316704 -0.5868696048095032 L -0.24504422698000364 -0.6159005667993274 Z M -0.2246238747316704 -0.09060623568108023 L -0.20420352248333656 -0.06056071796560397 L -0.20420352248333656 -0.5574732707842911 L -0.2246238747316704 -0.5868696048095032 Z M -0.20420352248333656 -0.06056071796560397 L -0.18378317023500274 -0.030241274667859447 L -0.18378317023500274 -0.5277409374105988 L -0.20420352248333656 -0.5574732707842911 Z M -0.18378317023500274 -0.030241274667859447 L -0.16336281798666918 0.0003224997402043184 L -0.16336281798666918 -0.49770227406991396 L -0.18378317023500274 -0.5277409374105988 Z M -0.16336281798666918 0.0003224997402043184 L -0.14294246573833536 0.031100734891649523 L -0.14294246573833536 -0.4673872176847341 L -0.16336281798666918 -0.49770227406991396 Z M -0.14294246573833536 0.031100734891649523 L -0.12252211349000211 0.06206331411510008 L -0.12252211349000211 -0.4368259432865501 L -0.14294246573833536 -0.4673872176847341 Z M -0.12252211349000211 0.06206331411510008 L -0.10210176124166828 0.09317990425432807 L -0.10210176124166828 -0.40604883433479 L -0.12252211349000211 -0.4368259432865501 Z M -0.10210176124166828 0.09317990425432807 L -0.08168140899333474 0.12441998568775431 L -0.08168140899333474 -0.3750864528163634 L -0.10210176124166828 -0.40604883433479 Z M -0.08168140899333474 0.12441998568775431 L -0.06126105674500091 0.1557528825185406 L -0.06126105674500091 -0.34396950915556934 L -0.08168140899333474 -0.3750864528163634 Z M -0.06126105674500091 0.1557528825185406 L -0.04084070449666708 0.18714779290569197 L -0.04084070449666708 -0.3127288319643182 L -0.06126105674500091 -0.34396950915556934 Z M -0.04084070449666708 0.18714779290569197 L -0.02042035224833383 0.21857381950643878 L -0.02042035224833383 -0.28139533766269614 L -0.04084070449666708 -0.3127288319643182 Z M -0.02042035224833383 0.21857381950643878 L 0.0 0.2499999999999999 L 0.0 -0.2500000000000001 L -0.02042035224833383 -0.28139533766269614 Z M 0.0 0.2499999999999999 L 0.02042035224833383 0.2813953376626959 L 0.02042035224833383 -0.21857381950643903 L 0.0 -0.2500000000000001 Z M -1.872831702350029 -0.2990169943749474 A 0.035035 0.035035 0 0 1 -1.802831702350029 -0.2990169943749474 A 0.035035 0.035035 0 0 1 -1.872831702350029 -0.2990169943749474" transform="translate(100, 62.5) scale(48)" />
    <path fill="#346f9f" d="M -2.0420352248333655 -1.0 L -2.0216148725850323 -0.9681743511874947 L -2.0216148725850323 -1.0308387695439685 L -2.0420352248333655 -1.0 Z M -2.0216148725850323 -0.9681743511874947 L -2.001194520336698 -0.9537190265878125 L -2.001194520336698 -1.0423344302687305 L -2.0216148725850323 -1.0308387695439685 Z M -2.001194520336698 -0.9537190265878125 L -1.9807741680883646 -0.941301913282125 L -1.9807741680883646 -1.049822015924035 L -2.001194520336698 -1.0423344302687305 Z M -1.9807741680883646 -0.941301913282125 L -1.9603538158400309 -0.929469609961826 L -1.9603538158400309 -1.0547597926671295 L -1.9807741680883646 -1.049822015924035 Z M -1.9603538158400309 -0.929469609961826 L -1.9399334635916974 -0.9176619635434131 L -1.9399334635916974 -1.0577147176468624 L -1.9603538158400309 -1.0547597926671295 Z M -1.9399334635916974 -0.9176619635434131 L -1.9195131113433637 -0.9055945549721361 L -1.9195131113433637 -1.0589799464852414 L -1.9399334635916974 -1.0577147176468624 Z M -1.9195131113433637 -0.9055945549721361 L -1.89909275909503 -0.8931013379937459 L -1.89909275909503 -1.0587321858837488 L -1.9195131113433637 -1.0589799464852414 Z M -1.89909275909503 -0.8931013379937459 L -1.8786724068466965 -0.8800770760397005 L -1.8786724068466965 -1.0570892462175616 L -1.89909275909503 -1.0587321858837488 Z M -1.8786724068466965 -0.8800770760397005 L -1.8582520545983625 -0.866451653537294 L -1.8582520545983625 -1.054135717816592 L -1.8786724068466965 -1.0570892462175616 Z M -1.8582520545983625 -0.866451653537294 L -1.837831702350029 -0.8521770236537852 L -1.837831702350029 -1.049936008936522 L -1.8582520545983625 -1.054135717816592 Z M -1.837831702350029 -0.8521770236537852 L -1.8174113501016955 -0.8372199336910312 L -1.8174113501016955 -1.0445416042174198 L -1.837831702350029 -1.049936008936522 Z M -1.8174113501016955 -0.8372199336910312 L -1.7969909978533616 -0.8215575773666451 L -1.7969909978533616 -1.0379953944098577 L -1.8174113501016955 -1.0445416042174198 Z M -1.7969909978533616 -0.8215575773666451 L -1.776570645605028 -0.8051748497036478 L -1.776570645605028 -1.0303344016643143 L -1.7969909978533616 -1.0379953944098577 Z M -1.776570645605028 -0.8051748497036478 L -1.7561502933566944 -0.7880625347935523 L -1.7561502933566944 -1.0215915701384868 L -1.776570645605028 -1.0303344016643143 Z M -1.7561502933566944 -0.7880625347935523 L -1.7357299411083607 -0.7702160641304888 L -1.7357299411083607 -1.011796984246247 L -1.7561502933566944 -1.0215915701384868 Z M -1.7357299411083607 -0.7702160641304888 L -1.7153095888600272 -0.7516346384795922 L -1.7153095888600272 -1.0009787216081352 L -1.7357299411083607 -1.011796984246247 Z M -1.7153095888600272 -0.7516346384795922 L -1.6948892366116934 -0.7323205894522802 L -1.6948892366116934 -0.9891634645556071 L -1.7153095888600272 -1.0009787216081352 Z M -1.6948892366116934 -0.7323205894522802 L -1.67446888436336 -0.7122789038189603 L -1.67446888436336 -0.9763769471850696 L -1.6948892366116934 -0.9891634645556071 Z M -1.67446888436336 -0.7122789038189603 L -1.654048532115026 -0.6915168611097955 L -1.654048532115026 -0.962644287439328 L -1.67446888436336 -0.9763769471850696 Z M -1.654048532115026 -0.6915168611097955 L -1.6336281798666925 -0.6700437518120922 L -1.6336281798666925 -0.9479902369378027 L -1.654048532115026 -0.962644287439328 Z M -1.6336281798666925 -0.6700437518120922 L -1.613207827618359 -0.6478706540035056 L -1.613207827618359 -0.9324393707478754 L -1.6336281798666925 -0.9479902369378027 Z M -1.613207827618359 -0.6478706540035056 L -1.592787475370025 -0.6250102530631008 L -1.592787475370025 -0.9160162324884777 L -1.613207827618359 -0.9324393707478754 Z M -1.592787475370025 -0.6250102530631008 L -1.5723671231216916 -0.6014766936059219 L -1.5723671231216916 -0.8987454456549968 L -1.592787475370025 -0.9160162324884777 Z M -1.5723671231216916 -0.6014766936059219 L -1.5519467708733576 -0.5772854558340785 L -1.5519467708733576 -0.880651799008745 L -1.5723671231216916 -0.8987454456549968 Z M -1.5519467708733576 -0.5772854558340785 L -1.5315264186250241 -0.5524532506002137 L -1.5315264186250241 -0.8617603117728815 L -1.5519467708733576 -0.880651799008745 Z M -1.5315264186250241 -0.5524532506002137 L -1.5111060663766906 -0.5269979289563101 L -1.5111060663766906 -0.8420962829010669 L -1.5315264186250241 -0.8617603117728815 Z M -1.5111060663766906 -0.5269979289563101 L -1.490685714128357 -0.5009384030151411 L -1.490685714128357 -0.8216853276321625 L -1.5111060663766906 -0.8420962829010669 Z M -1.490685714128357 -0.5009384030151411 L -1.470265361880023 -0.47429457571548383 L -1.470265361880023 -0.8005534037818952 L -1.490685714128357 -0.8216853276321625 Z M -1.470265361880023 -0.47429457571548383 L -1.4498450096316895 -0.44708727764301265 L -1.4498450096316895 -0.778726829662941 L -1.470265361880023 -0.8005534037818952 Z M -1.4498450096316895 -0.44708727764301265 L -1.429424657383356 -0.4193382094756827 L -1.429424657383356 -0.7562322951092638 L -1.4498450096316895 -0.778726829662941 Z M -1.429424657383356 -0.4193382094756827 L -1.4090043051350223 -0.3910698889359463 L -1.4090043051350223 -0.7330968667683146 L -1.429424657383356 -0.7562322951092638 Z M -1.4090043051350223 -0.3910698889359463 L -1.3885839528866886 -0.36230560137038526 L -1.3885839528866886 -0.7093479885876081 L -1.4090043051350223 -0.7330968667683146 Z M -1.3885839528866886 -0.36230560137038526 L -1.3681636006383546 -0.33306935326025455 L -1.3681636006383546 -0.6850134782404876 L -1.3885839528866886 -0.7093479885876081 Z M -1.3681636006383546 -0.33306935326025455 L -1.3477432483900211 -0.3033858281081111 L -1.3477432483900211 -0.6601215200953201 L -1.3681636006383546 -0.6850134782404876 Z M -1.3477432483900211 -0.3033858281081111 L -1.3273228961416876 -0.2732803442563898 L -1.3273228961416876 -0.6347006552227039 L -1.3477432483900211 -0.6601215200953201 Z M -1.3273228961416876 -0.2732803442563898 L -1.3069025438933541 -0.24277881428103018 L -1.3069025438933541 -0.6087797688491148 L -1.3273228961416876 -0.6347006552227039 Z M -1.3069025438933541 -0.24277881428103018 L -1.2864821916450204 -0.21190770567243714 L -1.2864821916450204 -0.5823880755971241 L -1.3069025438933541 -0.6087797688491148 Z M -1.2864821916450204 -0.21190770567243714 L -1.2660618393966865 -0.1806940025714207 L -1.2660618393966865 -0.5555551027979349 L -1.2864821916450204 -0.5823880755971241 Z M -1.2660618393966865 -0.1806940025714207 L -1.245641487148353 -0.14916516837228413 L -1.245641487148353 -0.5283106721182994 L -1.2660618393966865 -0.5555551027979349 Z M -1.245641487148353 -0.14916516837228413 L -1.2252211349000193 -0.1173491090412809 L -1.2252211349000193 -0.5006848797086141 L -1.245641487148353 -0.5283106721182994 Z M -1.2252211349000193 -0.1173491090412809 L -1.2048007826516858 -0.08527413702807679 L -1.2048007826516858 -0.4727080750503814 L -1.2252211349000193 -0.5006848797086141 Z M -1.2048007826516858 -0.08527413702807679 L -1.184380430403352 -0.052968935671891176 L -1.184380430403352 -0.4444108386578185 L -1.2048007826516858 -0.4727080750503814 Z M -1.184380430403352 -0.052968935671891176 L -1.1639600781550183 -0.020462524023851736 L -1.1639600781550183 -0.4158239587692329 L -1.184380430403352 -0.4444108386578185 Z M -1.1639600781550183 -0.020462524023851736 L -1.1435397259066846 0.012215777976499226 L -1.1435397259066846 -0.3869784071479493 L -1.1639600781550183 -0.4158239587692329 Z M -1.1435397259066846 0.012215777976499226 L -1.1231193736583511 0.04503638401897281 L -1.1231193736583511 -0.35790531409943477 L -1.1435397259066846 -0.3869784071479493 Z M -1.1231193736583511 0.04503638401897281 L -1.1026990214100174 0.07796947567177137 L -1.1026990214100174 -0.32863594280037955 L -1.1231193736583511 -0.35790531409943477 Z M -1.1026990214100174 0.07796947567177137 L -1.082278669161684 0.11098503638927318 L -1.082278669161684 -0.2992016630263019 L -1.1026990214100174 -0.32863594280037955 Z M -1.082278669161684 0.11098503638927318 L -1.0618583169133502 0.1440528852979684 L -1.0618583169133502 -0.26963392435659644 L -1.082278669161684 -0.2992016630263019 Z M -1.0618583169133502 0.1440528852979684 L -1.0414379646650163 0.17714271077317745 L -1.0414379646650163 -0.2399642289294348 L -1.0618583169133502 -0.26963392435659644 Z M -1.0414379646650163 0.17714271077317745 L -1.0210176124166828 0.21022410381342851 L -1.0210176124166828 -0.21022410381342874 L -1.0414379646650163 -0.2399642289294348 Z M -1.0210176124166828 0.21022410381342851 L -1.000597260168349 0.24326659121451144 L -1.000597260168349 -0.18044507305825458 L -1.0210176124166828 -0.21022410381342874 Z M -1.000597260168349 0.24326659121451144 L -0.9801769079200154 0.276239668541059 L -0.9801769079200154 -0.15065862948243147 L -1.000597260168349 -0.18044507305825458 Z M -0.9801769079200154 0.276239668541059 L -0.9597565556716817 0.30911283288999497 L -0.9597565556716817 -0.12089620625296588 L -0.9801769079200154 -0.15065862948243147 Z M -0.9597565556716817 0.30911283288999497 L -0.939336203423348 0.34185561543718024 L -0.939336203423348 -0.09118914830857258 L -0.9597565556716817 -0.12089620625296588 Z M -0.939336203423348 0.34185561543718024 L -0.9189158511750144 0.3744376137560278 L -0.9189158511750144 -0.061568683675566366 L -0.939336203423348 -0.09118914830857258 Z M -0.9189158511750144 0.3744376137560278 L -0.8984954989266807 0.4068285238946764 L -0.8984954989266807 -0.03206589472322688 L -0.9189158511750144 -0.061568683675566366 Z M -0.8984954989266807 0.4068285238946764 L -0.8780751466783473 0.43899817219648096 L -0.8780751466783473 -0.002711689403395945 L -0.8984954989266807 -0.03206589472322688 Z M -0.8780751466783473 0.43899817219648096 L -0.8576547944300136 0.47091654684699186 L -0.8576547944300136 0.026463227482716456 L -0.8780751466783473 -0.002711689403395945 Z M -0.8576547944300136 0.47091654684699186 L -0.8372344421816801 0.5025538291292896 L -0.8372344421816801 0.05542838294916819 L -0.8576547944300136 0.026463227482716456 Z M -0.8372344421816801 0.5025538291292896 L -0.8168140899333463 0.5338804243684308 L -0.8168140899333463 0.08415356438146387 L -0.8372344421816801 0.05542838294916819 Z M -0.8168140899333463 0.5338804243684308 L -0.7963937376850125 0.5648669925448611 L -0.7963937376850125 0.1126088479457219 L -0.8168140899333463 0.08415356438146387 Z M -0.7963937376850125 0.5648669925448611 L -0.775973385436679 0.5954844785558835 L -0.775973385436679 0.14076462681347232 L -0.7963937376850125 0.1126088479457219 Z M -0.775973385436679 0.5954844785558835 L -0.7555530331883452 0.6257041421036849 L -0.7555530331883452 0.16859163916587677 L -0.775973385436679 0.14076462681347232 Z M -0.7555530331883452 0.6257041421036849 L -0.7351326809400115 0.6554975871879415 L -0.7351326809400115 0.19606099594220303 L -0.7555530331883452 0.16859163916587677 Z M -0.7351326809400115 0.6554975871879415 L -0.714712328691678 0.6848367911806932 L -0.714712328691678 0.22314420829840018 L -0.7351326809400115 0.19606099594220303 Z M -0.714712328691678 0.6848367911806932 L -0.6942919764433442 0.7136941334608933 L -0.6942919764433442 0.24981321474253743 L -0.714712328691678 0.22314420829840018 Z M -0.6942919764433442 0.7136941334608933 L -0.6738716241950106 0.7420424235859322 L -0.6738716241950106 0.2760404079148111 L -0.6942919764433442 0.24981321474253743 Z M -0.6738716241950106 0.7420424235859322 L -0.6534512719466767 0.7698549289773293 L -0.6534512719466767 0.3017986609806642 L -0.6738716241950106 0.2760404079148111 Z M -0.6534512719466767 0.7698549289773293 L -0.6330309196983435 0.7971054020978238 L -0.6330309196983435 0.32706135360643673 L -0.6534512719466767 0.3017986609806642 Z M -0.6330309196983435 0.7971054020978238 L -0.6126105674500096 0.8237681070971664 L -0.6126105674500096 0.35180239748777964 L -0.6330309196983435 0.32706135360643673 Z M -0.6126105674500096 0.8237681070971664 L -0.5921902152016761 0.8498178459040653 L -0.5921902152016761 0.37599626140188797 L -0.6126105674500096 0.35180239748777964 Z M -0.5921902152016761 0.8498178459040653 L -0.5717698629533423 0.8752299837419577 L -0.5717698629533423 0.3996179957554216 L -0.5921902152016761 0.37599626140188797 Z M -0.5717698629533423 0.8752299837419577 L -0.5513495107050085 0.8999804740465324 L -0.5513495107050085 0.42264325660077173 L -0.5717698629533423 0.3996179957554216 Z M -0.5513495107050085 0.8999804740465324 L -0.5309291584566752 0.9240458827632452 L -0.5309291584566752 0.4450483290941316 L -0.5513495107050085 0.42264325660077173 Z M -0.5309291584566752 0.9240458827632452 L -0.5105088062083414 0.9474034120034514 L -0.5105088062083414 0.4668101503696436 L -0.5309291584566752 0.4450483290941316 Z M -0.5105088062083414 0.9474034120034514 L -0.49008845396000755 0.9700309230381581 L -0.49008845396000755 0.48790633180466497 L -0.5105088062083414 0.4668101503696436 Z M -0.49008845396000755 0.9700309230381581 L -0.469668101711674 0.9919069586088842 L -0.469668101711674 0.5083151806520347 L -0.49008845396000755 0.48790633180466497 Z M -0.469668101711674 0.9919069586088842 L -0.4492477494633402 1.013010764535578 L -0.4492477494633402 0.5280157210160008 L -0.469668101711674 0.5083151806520347 Z M -0.4492477494633402 1.013010764535578 L -0.4288273972150067 1.0333223106020792 L -0.4288273972150067 0.5469877141493015 L -0.4492477494633402 0.5280157210160008 Z M -0.4288273972150067 1.0333223106020792 L -0.4084070449666731 1.0528223107001806 L -0.4084070449666731 0.565211678049714 L -0.4288273972150067 0.5469877141493015 Z M -0.4084070449666731 1.0528223107001806 L -0.3879866927183393 1.0714922422139133 L -0.3879866927183393 0.5826689063352111 L -0.4084070449666731 0.565211678049714 Z M -0.3879866927183393 1.0714922422139133 L -0.36756634047000575 1.0893143646263241 L -0.36756634047000575 0.5993414863777055 L -0.3879866927183393 0.5826689063352111 Z M -0.36756634047000575 1.0893143646263241 L -0.3471459882216719 1.1062717373316602 L -0.3471459882216719 0.6152123166762272 L -0.36756634047000575 0.5993414863777055 Z M -0.3471459882216719 1.1062717373316602 L -0.32672563597333865 1.1223482366365243 L -0.32672563597333865 0.6302651234512029 L -0.3471459882216719 0.6152123166762272 Z M -0.32672563597333865 1.1223482366365243 L -0.3063052837250048 1.1375285719343144 L -0.3063052837250048 0.6444844764424211 L -0.32672563597333865 0.6302651234512029 Z M -0.3063052837250048 1.1375285719343144 L -0.285884931476671 1.1517983010379371 L -0.285884931476671 0.6578558038941026 L -0.3063052837250048 0.6444844764424211 Z M -0.285884931476671 1.1517983010379371 L -0.2654645792283375 1.1651438446565554 L -0.2654645792283375 0.6703654067114065 L -0.285884931476671 0.6578558038941026 Z M -0.2654645792283375 1.1651438446565554 L -0.24504422698000364 1.177552500002901 L -0.24504422698000364 0.6820004717736019 L -0.2654645792283375 0.6703654067114065 Z M -0.24504422698000364 1.177552500002901 L -0.2246238747316704 1.189012453518437 L -0.2246238747316704 0.6927490843900139 L -0.24504422698000364 0.6820004717736019 Z M -0.2246238747316704 1.189012453518437 L -0.20420352248333656 1.199512792704497 L -0.20420352248333656 0.70260023988581 L -0.2246238747316704 0.6927490843900139 Z M -0.20420352248333656 1.199512792704497 L -0.18378317023500274 1.209043517048313 L -0.18378317023500274 0.7115438543055735 L -0.20420352248333656 0.70260023988581 Z M -0.18378317023500274 1.209043517048313 L -0.16336281798666918 1.2175955480336902 L -0.16336281798666918 0.7195707742235719 L -0.18378317023500274 0.7115438543055735 Z M -0.16336281798666918 1.2175955480336902 L -0.14294246573833536 1.225160738226939 L -0.14294246573833536 0.7266727856505554 L -0.16336281798666918 0.7195707742235719 Z M -0.14294246573833536 1.225160738226939 L -0.12252211349000211 1.2317318794295138 L -0.12252211349000211 0.7328426220278637 L -0.14294246573833536 0.7266727856505554 Z M -0.12252211349000211 1.2317318794295138 L -0.10210176124166828 1.2373027098896967 L -0.10210176124166828 0.7380739713005786 L -0.12252211349000211 0.7328426220278637 Z M -0.10210176124166828 1.2373027098896967 L -0.08168140899333474 1.2418679205665364 L -0.08168140899333474 0.7423614820624188 L -0.10210176124166828 0.7380739713005786 Z M -0.08168140899333474 1.2418679205665364 L -0.06126105674500091 1.245423160440135 L -0.06126105674500091 0.7457007687660251 L -0.08168140899333474 0.7423614820624188 Z M -0.06126105674500091 1.245423160440135 L -0.04084070449666708 1.2479650408632768 L -0.04084070449666708 0.7480884159932665 L -0.06126105674500091 0.7457007687660251 Z M -0.04084070449666708 1.2479650408632768 L -0.02042035224833383 1.2494911389502992 L -0.02042035224833383 0.7495219817811641 L -0.04084070449666708 0.7480884159932665 Z M -0.02042035224833383 1.2494911389502992 L 0.0 1.25 L 0.0 0.75 L -0.02042035224833383 0.7495219817811641 Z M 0.0 1.25 L 0.02042035224833383 1.249491138950299 L 0.02042035224833383 0.749521981781164 L 0.0 0.75 Z M 0.02042035224833383 1.249491138950299 L 0.04084070449666737 1.2479650408632768 L 0.04084070449666737 0.7480884159932665 L 0.02042035224833383 0.749521981781164 Z M 0.04084070449666737 1.2479650408632768 L 0.0612610567450012 1.2454231604401351 L 0.0612610567450012 0.7457007687660251 L 0.04084070449666737 0.7480884159932665 Z M 0.0612610567450012 1.2454231604401351 L 0.08168140899333474 1.2418679205665366 L 0.08168140899333474 0.7423614820624189 L 0.0612610567450012 0.7457007687660251 Z M 0.08168140899333474 1.2418679205665366 L 0.10210176124166828 1.237302709889697 L 0.10210176124166828 0.7380739713005787 L 0.08168140899333474 0.7423614820624189 Z M 0.10210176124166828 1.237302709889697 L 0.12252211349000211 1.2317318794295138 L 0.12252211349000211 0.7328426220278635 L 0.10210176124166828 0.7380739713005787 Z M 0.12252211349000211 1.2317318794295138 L 0.14294246573833594 1.2251607382269392 L 0.14294246573833594 0.7266727856505555 L 0.12252211349000211 0.7328426220278635 Z M 0.14294246573833594 1.2251607382269392 L 0.1633628179866695 1.2175955480336904 L 0.1633628179866695 0.7195707742235722 L 0.14294246573833594 0.7266727856505555 Z M 0.1633628179866695 1.2175955480336904 L 0.183783170235003 1.2090435170483125 L 0.183783170235003 0.7115438543055732 L 0.1633628179866695 0.7195707742235722 Z M 0.183783170235003 1.2090435170483125 L 0.20420352248333684 1.199512792704497 L 0.20420352248333684 0.7026002398858101 L 0.183783170235003 0.7115438543055732 Z M 0.20420352248333684 1.199512792704497 L 0.2246238747316704 1.189012453518437 L 0.2246238747316704 0.6927490843900138 L 0.20420352248333684 0.7026002398858101 Z M 0.2246238747316704 1.189012453518437 L 0.24504422698000422 1.1775525000029008 L 0.24504422698000422 0.6820004717736017 L 0.2246238747316704 0.6927490843900138 Z M 0.24504422698000422 1.1775525000029008 L 0.26546457922833716 1.1651438446565558 L 0.26546457922833716 0.6703654067114071 L 0.24504422698000422 0.6820004717736017 Z M 0.26546457922833716 1.1651438446565558 L 0.285884931476671 1.1517983010379367 L 0.285884931476671 0.6578558038941024 L 0.26546457922833716 0.6703654067114071 Z M 0.285884931476671 1.1517983010379367 L 0.30630528372500454 1.1375285719343144 L 0.30630528372500454 0.6444844764424212 L 0.285884931476671 0.6578558038941024 Z M 0.30630528372500454 1.1375285719343144 L 0.32672563597333837 1.122348236636525 L 0.32672563597333837 0.6302651234512036 L 0.30630528372500454 0.6444844764424212 Z M 0.32672563597333837 1.122348236636525 L 0.3471459882216722 1.10627173733166 L 0.3471459882216722 0.6152123166762269 L 0.32672563597333837 0.6302651234512036 Z M 0.3471459882216722 1.10627173733166 L 0.36756634047000547 1.089314364626325 L 0.36756634047000547 0.5993414863777061 L 0.3471459882216722 0.6152123166762269 Z M 0.36756634047000547 1.089314364626325 L 0.3879866927183393 1.071492242213913 L 0.3879866927183393 0.5826689063352107 L 0.36756634047000547 0.5993414863777061 Z M 0.3879866927183393 1.071492242213913 L 0.4084070449666731 1.0528223107001808 L 0.4084070449666731 0.5652116780497142 L 0.3879866927183393 0.5826689063352107 Z M 0.4084070449666731 1.0528223107001808 L 0.4288273972150067 1.0333223106020801 L 0.4288273972150067 0.5469877141493023 L 0.4084070449666731 0.5652116780497142 Z M 0.4288273972150067 1.0333223106020801 L 0.4492477494633405 1.0130107645355775 L 0.4492477494633405 0.5280157210160006 L 0.4288273972150067 0.5469877141493023 Z M 0.4492477494633405 1.0130107645355775 L 0.46966810171167434 0.9919069586088848 L 0.46966810171167434 0.5083151806520353 L 0.4492477494633405 0.5280157210160006 Z M 0.46966810171167434 0.9919069586088848 L 0.49008845396000755 0.9700309230381581 L 0.49008845396000755 0.48790633180466497 L 0.46966810171167434 0.5083151806520353 Z M 0.49008845396000755 0.9700309230381581 L 0.5105088062083414 0.9474034120034516 L 0.5105088062083414 0.4668101503696438 L 0.49008845396000755 0.48790633180466497 Z M 0.5105088062083414 0.9474034120034516 L 0.5309291584566752 0.9240458827632451 L 0.5309291584566752 0.4450483290941315 L 0.5105088062083414 0.4668101503696438 Z M 0.5309291584566752 0.9240458827632451 L 0.5513495107050088 0.8999804740465319 L 0.5513495107050088 0.4226432566007713 L 0.5309291584566752 0.4450483290941315 Z M 0.5513495107050088 0.8999804740465319 L 0.5717698629533426 0.8752299837419583 L 0.5717698629533426 0.39961799575542234 L 0.5513495107050088 0.4226432566007713 Z M 0.5717698629533426 0.8752299837419583 L 0.5921902152016761 0.8498178459040644 L 0.5921902152016761 0.3759962614018872 L 0.5717698629533426 0.39961799575542234 Z M 0.5921902152016761 0.8498178459040644 L 0.6126105674500096 0.8237681070971667 L 0.6126105674500096 0.35180239748777997 L 0.5921902152016761 0.3759962614018872 Z M 0.6126105674500096 0.8237681070971667 L 0.6330309196983438 0.7971054020978237 L 0.6330309196983438 0.3270613536064368 L 0.6126105674500096 0.35180239748777997 Z M 0.6330309196983438 0.7971054020978237 L 0.6534512719466773 0.7698549289773289 L 0.6534512719466773 0.3017986609806638 L 0.6330309196983438 0.3270613536064368 Z M 0.6534512719466773 0.7698549289773289 L 0.6738716241950109 0.7420424235859325 L 0.6738716241950109 0.27604040791481144 L 0.6534512719466773 0.3017986609806638 Z M 0.6738716241950109 0.7420424235859325 L 0.6942919764433444 0.7136941334608925 L 0.6942919764433444 0.2498132147425366 L 0.6738716241950109 0.27604040791481144 Z M 0.6942919764433444 0.7136941334608925 L 0.7147123286916786 0.6848367911806935 L 0.7147123286916786 0.22314420829840045 L 0.6942919764433444 0.2498132147425366 Z M 0.7147123286916786 0.6848367911806935 L 0.735132680940012 0.6554975871879414 L 0.735132680940012 0.196060995942203 L 0.7147123286916786 0.22314420829840045 Z M 0.735132680940012 0.6554975871879414 L 0.7555530331883457 0.6257041421036844 L 0.7555530331883457 0.16859163916587633 L 0.735132680940012 0.196060995942203 Z M 0.7555530331883457 0.6257041421036844 L 0.7759733854366786 0.5954844785558844 L 0.7759733854366786 0.14076462681347304 L 0.7555530331883457 0.16859163916587633 Z M 0.7759733854366786 0.5954844785558844 L 0.7963937376850126 0.5648669925448611 L 0.7963937376850126 0.11260884794572185 L 0.7759733854366786 0.14076462681347304 Z M 0.7963937376850126 0.5648669925448611 L 0.8168140899333463 0.5338804243684311 L 0.8168140899333463 0.08415356438146426 L 0.7963937376850126 0.11260884794572185 Z M 0.8168140899333463 0.5338804243684311 L 0.8372344421816797 0.5025538291292913 L 0.8372344421816797 0.05542838294916977 L 0.8168140899333463 0.08415356438146426 Z M 0.8372344421816797 0.5025538291292913 L 0.8576547944300134 0.47091654684699225 L 0.8576547944300134 0.02646322748271676 L 0.8372344421816797 0.05542838294916977 Z M 0.8576547944300134 0.47091654684699225 L 0.8780751466783469 0.4389981721964818 L 0.8780751466783469 -0.0027116894033951677 L 0.8576547944300134 0.02646322748271676 Z M 0.8780751466783469 0.4389981721964818 L 0.898495498926681 0.40682852389467633 L 0.898495498926681 -0.03206589472322696 L 0.8780751466783469 -0.0027116894033951677 Z M 0.898495498926681 0.40682852389467633 L 0.9189158511750145 0.37443761375602824 L 0.9189158511750145 -0.06156868367556598 L 0.898495498926681 -0.03206589472322696 Z M 0.9189158511750145 0.37443761375602824 L 0.9393362034233487 0.3418556154371802 L 0.9393362034233487 -0.09118914830857261 L 0.9189158511750145 -0.06156868367556598 Z M 0.9393362034233487 0.3418556154371802 L 0.9597565556716822 0.3091128328899944 L 0.9597565556716822 -0.12089620625296636 L 0.9393362034233487 -0.09118914830857261 Z M 0.9597565556716822 0.3091128328899944 L 0.9801769079200151 0.2762396685410594 L 0.9801769079200151 -0.15065862948243114 L 0.9597565556716822 -0.12089620625296636 Z M 0.9801769079200151 0.2762396685410594 L 1.0005972601683493 0.24326659121451139 L 1.0005972601683493 -0.18044507305825463 L 0.9801769079200151 -0.15065862948243114 Z M 1.0005972601683493 0.24326659121451139 L 1.0210176124166828 0.2102241038134289 L 1.0210176124166828 -0.2102241038134284 L 1.0005972601683493 -0.18044507305825463 Z M 1.0210176124166828 0.2102241038134289 L 1.041437964665017 0.1771427107731773 L 1.041437964665017 -0.23996422892943484 L 1.0210176124166828 -0.2102241038134284 Z M 1.041437964665017 0.1771427107731773 L 1.0618583169133504 0.14405288529796872 L 1.0618583169133504 -0.26963392435659606 L 1.041437964665017 -0.23996422892943484 Z M 1.0618583169133504 0.14405288529796872 L 1.0822786691616835 0.11098503638927405 L 1.0822786691616835 -0.29920166302630113 L 1.0618583169133504 -0.26963392435659606 Z M 1.0822786691616835 0.11098503638927405 L 1.1026990214100176 0.07796947567177129 L 1.1026990214100176 -0.32863594280037967 L 1.0822786691616835 -0.29920166302630113 Z M 1.1026990214100176 0.07796947567177129 L 1.1231193736583511 0.0450363840189732 L 1.1231193736583511 -0.35790531409943444 L 1.1026990214100176 -0.32863594280037967 Z M 1.1231193736583511 0.0450363840189732 L 1.1435397259066853 0.012215777976499115 L 1.1435397259066853 -0.3869784071479493 L 1.1231193736583511 -0.35790531409943444 Z M 1.1435397259066853 0.012215777976499115 L 1.1639600781550188 -0.020462524023852235 L 1.1639600781550188 -0.4158239587692334 L 1.1435397259066853 -0.3869784071479493 Z M 1.1639600781550188 -0.020462524023852235 L 1.1843804304033523 -0.05296893567189123 L 1.1843804304033523 -0.4444108386578185 L 1.1639600781550188 -0.4158239587692334 Z M 1.1843804304033523 -0.05296893567189123 L 1.2048007826516858 -0.08527413702807685 L 1.2048007826516858 -0.4727080750503815 L 1.1843804304033523 -0.4444108386578185 Z M 1.2048007826516858 -0.08527413702807685 L 1.2252211349000193 -0.11734910904128054 L 1.2252211349000193 -0.5006848797086139 L 1.2048007826516858 -0.4727080750503815 Z M 1.2252211349000193 -0.11734910904128054 L 1.2456414871483534 -0.14916516837228425 L 1.2456414871483534 -0.5283106721182994 L 1.2252211349000193 -0.5006848797086139 Z M 1.2456414871483534 -0.14916516837228425 L 1.266061839396687 -0.18069400257142118 L 1.266061839396687 -0.5555551027979352 L 1.2456414871483534 -0.5283106721182994 Z M 1.266061839396687 -0.18069400257142118 L 1.28648219164502 -0.21190770567243633 L 1.28648219164502 -0.5823880755971235 L 1.266061839396687 -0.5555551027979352 Z M 1.28648219164502 -0.21190770567243633 L 1.3069025438933541 -0.24277881428103024 L 1.3069025438933541 -0.6087797688491149 L 1.28648219164502 -0.5823880755971235 Z M 1.3069025438933541 -0.24277881428103024 L 1.3273228961416876 -0.2732803442563895 L 1.3273228961416876 -0.6347006552227037 L 1.3069025438933541 -0.6087797688491149 Z M 1.3273228961416876 -0.2732803442563895 L 1.3477432483900218 -0.3033858281081112 L 1.3477432483900218 -0.6601215200953201 L 1.3273228961416876 -0.6347006552227037 Z M 1.3477432483900218 -0.3033858281081112 L 1.3681636006383546 -0.3330693532602542 L 1.3681636006383546 -0.6850134782404873 L 1.3477432483900218 -0.6601215200953201 Z M 1.3681636006383546 -0.3330693532602542 L 1.3885839528866883 -0.36230560137038453 L 1.3885839528866883 -0.7093479885876075 L 1.3681636006383546 -0.6850134782404873 Z M 1.3885839528866883 -0.36230560137038453 L 1.4090043051350223 -0.3910698889359463 L 1.4090043051350223 -0.7330968667683146 L 1.3885839528866883 -0.7093479885876075 Z M 1.4090043051350223 -0.3910698889359463 L 1.429424657383356 -0.41933820947568234 L 1.429424657383356 -0.7562322951092635 L 1.4090043051350223 -0.7330968667683146 Z M 1.429424657383356 -0.41933820947568234 L 1.44984500963169 -0.4470872776430127 L 1.44984500963169 -0.7787268296629409 L 1.429424657383356 -0.7562322951092635 Z M 1.44984500963169 -0.4470872776430127 L 1.4702653618800237 -0.4742945757154842 L 1.4702653618800237 -0.8005534037818955 L 1.44984500963169 -0.7787268296629409 Z M 1.4702653618800237 -0.4742945757154842 L 1.4906857141283565 -0.5009384030151405 L 1.4906857141283565 -0.8216853276321621 L 1.4702653618800237 -0.8005534037818955 Z M 1.4906857141283565 -0.5009384030151405 L 1.5111060663766906 -0.5269979289563103 L 1.5111060663766906 -0.842096282901067 L 1.4906857141283565 -0.8216853276321621 Z M 1.5111060663766906 -0.5269979289563103 L 1.5315264186250241 -0.5524532506002134 L 1.5315264186250241 -0.8617603117728813 L 1.5111060663766906 -0.842096282901067 Z M 1.5315264186250241 -0.5524532506002134 L 1.5519467708733583 -0.5772854558340785 L 1.5519467708733583 -0.880651799008745 L 1.5315264186250241 -0.8617603117728813 Z M 1.5519467708733583 -0.5772854558340785 L 1.5723671231216918 -0.6014766936059224 L 1.5723671231216918 -0.898745445654997 L 1.5519467708733583 -0.880651799008745 Z M 1.5723671231216918 -0.6014766936059224 L 1.5927874753700249 -0.6250102530631002 L 1.5927874753700249 -0.9160162324884772 L 1.5723671231216918 -0.898745445654997 Z M 1.5927874753700249 -0.6250102530631002 L 1.613207827618359 -0.6478706540035054 L 1.613207827618359 -0.9324393707478752 L 1.5927874753700249 -0.9160162324884772 Z M 1.613207827618359 -0.6478706540035054 L 1.6336281798666925 -0.6700437518120919 L 1.6336281798666925 -0.9479902369378026 L 1.613207827618359 -0.9324393707478752 Z M 1.6336281798666925 -0.6700437518120919 L 1.6540485321150267 -0.6915168611097959 L 1.6540485321150267 -0.9626442874393282 L 1.6336281798666925 -0.9479902369378026 Z M 1.6540485321150267 -0.6915168611097959 L 1.6744688843633602 -0.7122789038189606 L 1.6744688843633602 -0.9763769471850697 L 1.6540485321150267 -0.9626442874393282 Z M 1.6744688843633602 -0.7122789038189606 L 1.6948892366116937 -0.7323205894522802 L 1.6948892366116937 -0.9891634645556071 L 1.6744688843633602 -0.9763769471850697 Z M 1.6948892366116937 -0.7323205894522802 L 1.7153095888600272 -0.7516346384795921 L 1.7153095888600272 -1.000978721608135 L 1.6948892366116937 -0.9891634645556071 Z M 1.7153095888600272 -0.7516346384795921 L 1.7357299411083607 -0.7702160641304885 L 1.7357299411083607 -1.0117969842462469 L 1.7153095888600272 -1.000978721608135 Z M 1.7357299411083607 -0.7702160641304885 L 1.7561502933566948 -0.7880625347935526 L 1.7561502933566948 -1.0215915701384868 L 1.7357299411083607 -1.0117969842462469 Z M 1.7561502933566948 -0.7880625347935526 L 1.7765706456050283 -0.8051748497036479 L 1.7765706456050283 -1.0303344016643146 L 1.7561502933566948 -1.0215915701384868 Z M 1.7765706456050283 -0.8051748497036479 L 1.7969909978533614 -0.8215575773666447 L 1.7969909978533614 -1.0379953944098574 L 1.7765706456050283 -1.0303344016643146 Z M 1.7969909978533614 -0.8215575773666447 L 1.8174113501016955 -0.8372199336910312 L 1.8174113501016955 -1.0445416042174198 L 1.7969909978533614 -1.0379953944098574 Z M 1.8174113501016955 -0.8372199336910312 L 1.837831702350029 -0.8521770236537851 L 1.837831702350029 -1.049936008936522 L 1.8174113501016955 -1.0445416042174198 Z M 1.837831702350029 -0.8521770236537851 L 1.8582520545983632 -0.8664516535372943 L 1.8582520545983632 -1.054135717816592 L 1.837831702350029 -1.049936008936522 Z M 1.8582520545983632 -0.8664516535372943 L 1.878672406846696 -0.8800770760397003 L 1.878672406846696 -1.0570892462175616 L 1.8582520545983632 -1.054135717816592 Z M 1.878672406846696 -0.8800770760397003 L 1.8990927590950297 -0.8931013379937456 L 1.8990927590950297 -1.0587321858837488 L 1.878672406846696 -1.0570892462175616 Z M 1.8990927590950297 -0.8931013379937456 L 1.9195131113433637 -0.9055945549721359 L 1.9195131113433637 -1.0589799464852412 L 1.8990927590950297 -1.0587321858837488 Z M 1.9195131113433637 -0.9055945549721359 L 1.9399334635916974 -0.9176619635434129 L 1.9399334635916974 -1.0577147176468624 L 1.9195131113433637 -1.0589799464852412 Z M 1.9399334635916974 -0.9176619635434129 L 1.9603538158400315 -0.9294696099618263 L 1.9603538158400315 -1.0547597926671295 L 1.9399334635916974 -1.0577147176468624 Z M 1.9603538158400315 -0.9294696099618263 L 1.980774168088365 -0.9413019132821251 L 1.980774168088365 -1.0498220159240348 L 1.9603538158400315 -1.0547597926671295 Z M 1.980774168088365 -0.9413019132821251 L 2.001194520336698 -0.9537190265878123 L 2.001194520336698 -1.042334430268731 L 1.980774168088365 -1.0498220159240348 Z M 2.001194520336698 -0.9537190265878123 L 2.0216148725850323 -0.9681743511874947 L 2.0216148725850323 -1.0308387695439685 L 2.001194520336698 -1.042334430268731 Z M 2.0216148725850323 -0.9681743511874947 L 2.0420352248333655 -0.9999999972334059 L 2.0420352248333655 -1.000000002766594 L 2.0216148725850323 -1.0308387695439685 Z M 1.802831702350029 -0.9710565162951535 A 0.035035 0.035035 0 0 1 1.872831702350029 -0.9710565162951535 A 0.035035 0.035035 0 0 1 1.802831702350029 -0.9710565162951535" transform="translate(100, 62.5) scale(48)" />
    <path fill="#ffdd56" d="M 0.0 0.2499999999999999 L 0.02042035224833383 0.2813953376626959 L 0.02042035224833383 -0.21857381950643903 L 0.0 -0.2500000000000001 Z M 0.02042035224833383 0.2813953376626959 L 0.04084070449666737 0.31272883196431844 L 0.04084070449666737 -0.18714779290569178 L 0.02042035224833383 -0.21857381950643903 Z M 0.04084070449666737 0.31272883196431844 L 0.0612610567450012 0.3439695091555695 L 0.0612610567450012 -0.15575288251854041 L 0.04084070449666737 -0.18714779290569178 Z M 0.0612610567450012 0.3439695091555695 L 0.08168140899333474 0.3750864528163631 L 0.08168140899333474 -0.12441998568775456 L 0.0612610567450012 -0.15575288251854041 Z M 0.08168140899333474 0.3750864528163631 L 0.10210176124166828 0.4060488343347898 L 0.10210176124166828 -0.09317990425432832 L 0.08168140899333474 -0.12441998568775456 Z M 0.10210176124166828 0.4060488343347898 L 0.12252211349000211 0.4368259432865499 L 0.12252211349000211 -0.062063314115100326 L 0.10210176124166828 -0.09317990425432832 Z M 0.12252211349000211 0.4368259432865499 L 0.14294246573833594 0.4673872176847348 L 0.14294246573833594 -0.031100734891648885 L 0.12252211349000211 -0.062063314115100326 Z M 0.14294246573833594 0.4673872176847348 L 0.1633628179866695 0.49770227406991413 L 0.1633628179866695 -0.00032249974020409633 L 0.14294246573833594 -0.031100734891648885 Z M 0.1633628179866695 0.49770227406991413 L 0.183783170235003 0.5277409374105989 L 0.183783170235003 0.030241274667859613 L 0.1633628179866695 -0.00032249974020409633 Z M 0.183783170235003 0.5277409374105989 L 0.20420352248333684 0.5574732707842912 L 0.20420352248333684 0.06056071796560422 L 0.183783170235003 0.030241274667859613 Z M 0.20420352248333684 0.5574732707842912 L 0.2246238747316704 0.586869604809503 L 0.2246238747316704 0.09060623568107995 L 0.20420352248333684 0.06056071796560422 Z M 0.2246238747316704 0.586869604809503 L 0.24504422698000422 0.6159005667993279 L 0.24504422698000422 0.1203485385700287 L 0.2246238747316704 0.09060623568107995 Z M 0.24504422698000422 0.6159005667993279 L 0.26546457922833716 0.6445371096073544 L 0.26546457922833716 0.1497586716622056 L 0.24504422698000422 0.1203485385700287 Z M 0.26546457922833716 0.6445371096073544 L 0.285884931476671 0.6727505401369895 L 0.285884931476671 0.17880804299315506 L 0.26546457922833716 0.1497586716622056 Z M 0.285884931476671 0.6727505401369895 L 0.30630528372500454 0.7005125474854929 L 0.30630528372500454 0.20746845199359962 L 0.285884931476671 0.17880804299315506 Z M 0.30630528372500454 0.7005125474854929 L 0.32672563597333837 0.7277952306943757 L 0.32672563597333837 0.2357121175090543 L 0.30630528372500454 0.20746845199359962 Z M 0.32672563597333837 0.7277952306943757 L 0.3471459882216722 0.7545711260780877 L 0.3471459882216722 0.2635117054226547 L 0.32672563597333837 0.2357121175090543 Z M 0.3471459882216722 0.7545711260780877 L 0.36756634047000547 0.7808132341033055 L 0.36756634047000547 0.2908403558546867 L 0.3471459882216722 0.2635117054226547 Z M 0.36756634047000547 0.7808132341033055 L 0.3879866927183393 0.8064950457914813 L 0.3879866927183393 0.31767170991277915 L 0.36756634047000547 0.2908403558546867 Z M 0.3879866927183393 0.8064950457914813 L 0.4084070449666731 0.8315905686177064 L 0.4084070449666731 0.34397993596723964 L 0.3879866927183393 0.31767170991277915 Z M 0.4084070449666731 0.8315905686177064 L 0.4288273972150067 0.8560743518793652 L 0.4288273972150067 0.3697397554265873 L 0.4084070449666731 0.34397993596723964 Z M 0.4288273972150067 0.8560743518793652 L 0.4492477494633405 0.8799215115084781 L 0.4492477494633405 0.3949264679889012 L 0.4288273972150067 0.3697397554265873 Z M 0.4492477494633405 0.8799215115084781 L 0.46966810171167434 0.9031077543020768 L 0.46966810171167434 0.4195159763452273 L 0.4492477494633405 0.3949264679889012 Z M 0.46966810171167434 0.9031077543020768 L 0.49008845396000755 0.925609401545435 L 0.49008845396000755 0.4434848103119418 L 0.46966810171167434 0.4195159763452273 Z M 0.49008845396000755 0.925609401545435 L 0.5105088062083414 0.9474034120034514 L 0.5105088062083414 0.4668101503696436 L 0.49008845396000755 0.4434848103119418 Z M 0.5105088062083414 0.9474034120034514 L 0.5309291584566752 0.9684674042559683 L 0.5309291584566752 0.48946985058685477 L 0.5105088062083414 0.4668101503696436 Z M 0.5309291584566752 0.9684674042559683 L 0.5513495107050088 0.9887796783533398 L 0.5513495107050088 0.5114424609075792 L 0.5309291584566752 0.48946985058685477 Z M 0.5513495107050088 0.9887796783533398 L 0.5717698629533426 1.0083192367690574 L 0.5717698629533426 0.5327072487825214 L 0.5513495107050088 0.5114424609075792 Z M 0.5717698629533426 1.0083192367690574 L 0.5921902152016761 1.027065804626779 L 0.5921902152016761 0.5532442201246017 L 0.5717698629533426 0.5327072487825214 Z M 0.5921902152016761 1.027065804626779 L 0.6126105674500096 1.0449998491796406 L 0.6126105674500096 0.573034139570254 L 0.5921902152016761 0.5532442201246017 Z M 0.6126105674500096 1.0449998491796406 L 0.6330309196983438 1.0621025985202557 L 0.6330309196983438 0.5920585500288686 L 0.6126105674500096 0.573034139570254 Z M 0.6330309196983438 1.0621025985202557 L 0.6534512719466773 1.0783560595003479 L 0.6534512719466773 0.6102997915036827 L 0.6330309196983438 0.5920585500288686 Z M 0.6534512719466773 1.0783560595003479 L 0.6738716241950109 1.0937430348395043 L 0.6738716241950109 0.6277410191683832 L 0.6534512719466773 0.6102997915036827 Z M 0.6738716241950109 1.0937430348395043 L 0.6942919764433444 1.1082471394030415 L 0.6942919764433444 0.6443662206846856 L 0.6738716241950109 0.6277410191683832 Z M 0.6942919764433444 1.1082471394030415 L 0.7147123286916786 1.1218528156295147 L 0.7147123286916786 0.6601602327472217 L 0.6942919764433444 0.6443662206846856 Z M 0.7147123286916786 1.1218528156295147 L 0.735132680940012 1.134545348088889 L 0.735132680940012 0.6751087568431506 L 0.7147123286916786 0.6601602327472217 Z M 0.735132680940012 1.134545348088889 L 0.7555530331883457 1.1463108771528852 L 0.7555530331883457 0.6891983742150772 L 0.735132680940012 0.6751087568431506 Z M 0.7555530331883457 1.1463108771528852 L 0.7759733854366786 1.1571364117594567 L 0.7759733854366786 0.7024165600170454 L 0.7555530331883457 0.6891983742150772 Z M 0.7759733854366786 1.1571364117594567 L 0.7963937376850126 1.167009841253795 L 0.7963937376850126 0.7147516966546559 L 0.7759733854366786 0.7024165600170454 Z M 0.7963937376850126 1.167009841253795 L 0.8168140899333463 1.175919946288637 L 0.8168140899333463 0.7261930863016701 L 0.7963937376850126 0.7147516966546559 Z M 0.8168140899333463 1.175919946288637 L 0.8372344421816797 1.1838564087670036 L 0.8372344421816797 0.7367309625868822 L 0.8168140899333463 0.7261930863016701 Z M 0.8372344421816797 1.1838564087670036 L 0.8576547944300134 1.1908098208107687 L 0.8576547944300134 0.7463565014464932 L 0.8372344421816797 0.7367309625868822 Z M 0.8576547944300134 1.1908098208107687 L 0.8780751466783469 1.1967716927386858 L 0.8780751466783469 0.7550618311388088 L 0.8576547944300134 0.7463565014464932 Z M 0.8780751466783469 1.1967716927386858 L 0.898495498926681 1.2017344600376403 L 0.898495498926681 0.762840041419737 L 0.8780751466783469 0.7550618311388088 Z M 0.898495498926681 1.2017344600376403 L 0.9189158511750145 1.2056914893109347 L 0.9189158511750145 0.7696851918793406 L 0.898495498926681 0.762840041419737 Z M 0.9189158511750145 1.2056914893109347 L 0.9393362034233487 1.2086370831873543 L 0.9393362034233487 0.7755923194416015 L 0.9189158511750145 0.7696851918793406 Z M 0.9393362034233487 1.2086370831873543 L 0.9597565556716822 1.2105664841745605 L 0.9597565556716822 0.7805574450315996 L 0.9393362034233487 0.7755923194416015 Z M 0.9597565556716822 1.2105664841745605 L 0.9801769079200151 1.2114758774400167 L 0.9801769079200151 0.7845775794165263 L 0.9597565556716822 0.7805574450315996 Z M 0.9801769079200151 1.2114758774400167 L 1.0005972601683493 1.2113623925021146 L 1.0005972601683493 0.7876507282293486 L 0.9801769079200151 0.7845775794165263 Z M 1.0005972601683493 1.2113623925021146 L 1.0210176124166828 1.2102241038134287 L 1.0210176124166828 0.7897758961865713 L 1.0005972601683493 0.7876507282293486 Z M 1.0210176124166828 1.2102241038134287 L 1.041437964665017 1.2080600302170375 L 1.041437964665017 0.7909530905144254 L 1.0210176124166828 0.7897758961865713 Z M 1.041437964665017 1.2080600302170375 L 1.0618583169133504 1.204870133255554 L 1.0618583169133504 0.7911833236009892 L 1.041437964665017 0.7909530905144254 Z M 1.0618583169133504 1.204870133255554 L 1.0822786691616835 1.2006553143108678 L 1.0822786691616835 0.7904686148952925 L 1.0618583169133504 0.7911833236009892 Z M 1.0822786691616835 1.2006553143108678 L 1.1026990214100176 1.1954174105505533 L 1.1026990214100176 0.7888119920784025 L 1.0822786691616835 0.7904686148952925 Z M 1.1026990214100176 1.1954174105505533 L 1.1231193736583511 1.1891591896543416 L 1.1231193736583511 0.7862174915359339 L 1.1026990214100176 0.7888119920784025 Z M 1.1231193736583511 1.1891591896543416 L 1.1435397259066853 1.1818843432909127 L 1.1435397259066853 0.7826901581664645 L 1.1231193736583511 0.7862174915359339 Z M 1.1435397259066853 1.1818843432909127 L 1.1639600781550188 1.1735974793114379 L 1.1639600781550188 0.7782360445660568 L 1.1435397259066853 0.7826901581664645 Z M 1.1639600781550188 1.1735974793114379 L 1.1843804304033523 1.1643041126215947 L 1.1843804304033523 0.7728622096356674 L 1.1639600781550188 0.7782360445660568 Z M 1.1843804304033523 1.1643041126215947 L 1.2048007826516858 1.1540106546880953 L 1.2048007826516858 0.7665767166657907 L 1.1843804304033523 0.7728622096356674 Z M 1.2048007826516858 1.1540106546880953 L 1.2252211349000193 1.1427244016288203 L 1.2252211349000193 0.759388630961487 L 1.2048007826516858 0.7665767166657907 Z M 1.2252211349000193 1.1427244016288203 L 1.2456414871483534 1.1304535208272328 L 1.2456414871483534 0.7513080170812177 L 1.2252211349000193 0.759388630961487 Z M 1.2456414871483534 1.1304535208272328 L 1.266061839396687 1.1172070360015083 L 1.266061839396687 0.7423459357749942 L 1.2456414871483534 0.7513080170812177 Z M 1.266061839396687 1.1172070360015083 L 1.28648219164502 1.102994810646325 L 1.28648219164502 0.732514440721638 L 1.266061839396687 0.7423459357749942 Z M 1.28648219164502 1.102994810646325 L 1.3069025438933541 1.087827529750062 L 1.3069025438933541 0.7218265751819772 L 1.28648219164502 0.732514440721638 Z M 1.3069025438933541 1.087827529750062 L 1.3273228961416876 1.071716679671525 L 1.3273228961416876 0.7102963687052108 L 1.3069025438933541 0.7218265751819772 Z M 1.3273228961416876 1.071716679671525 L 1.3477432483900218 1.0546745260374677 L 1.3477432483900218 0.6979388340502589 L 1.3273228961416876 0.7102963687052108 Z M 1.3477432483900218 1.0546745260374677 L 1.3681636006383546 1.0367140894940605 L 1.3681636006383546 0.6847699645138274 L 1.3477432483900218 0.6979388340502589 Z M 1.3681636006383546 1.0367140894940605 L 1.3885839528866883 1.017849119110627 L 1.3885839528866883 0.6708067318934041 L 1.3681636006383546 0.6847699645138274 Z M 1.3885839528866883 1.017849119110627 L 1.4090043051350223 0.998094063190746 L 1.4090043051350223 0.6560670853583777 L 1.3885839528866883 0.6708067318934041 Z M 1.4090043051350223 0.998094063190746 L 1.429424657383356 0.9774640371917381 L 1.429424657383356 0.640569951558157 L 1.4090043051350223 0.6560670853583777 Z M 1.429424657383356 0.9774640371917381 L 1.44984500963169 0.9559747883856542 L 1.44984500963169 0.624335236365726 L 1.429424657383356 0.640569951558157 Z M 1.44984500963169 0.9559747883856542 L 1.4702653618800237 0.9336426568089946 L 1.4702653618800237 0.6073838287425835 L 1.44984500963169 0.624335236365726 Z M 1.4702653618800237 0.9336426568089946 L 1.4906857141283565 0.9104845319389707 L 1.4906857141283565 0.5897376073219494 L 1.4702653618800237 0.6073838287425835 Z M 1.4906857141283565 0.9104845319389707 L 1.5111060663766906 0.8865178043937899 L 1.5111060663766906 0.5714194504490332 L 1.4906857141283565 0.5897376073219494 Z M 1.5111060663766906 0.8865178043937899 L 1.5315264186250241 0.8617603117728816 L 1.5315264186250241 0.5524532506002138 L 1.5111060663766906 0.5714194504490332 Z M 1.5315264186250241 0.8617603117728816 L 1.5519467708733583 0.8362302775160215 L 1.5519467708733583 0.532863934341355 L 1.5315264186250241 0.5524532506002138 Z M 1.5519467708733583 0.8362302775160215 L 1.5723671231216918 0.8099462413481889 L 1.5723671231216918 0.5126774892991143 L 1.5519467708733583 0.532863934341355 Z M 1.5723671231216918 0.8099462413481889 L 1.5927874753700249 0.7829269794613788 L 1.5927874753700249 0.4919210000360018 L 1.5723671231216918 0.5126774892991143 Z M 1.5927874753700249 0.7829269794613788 L 1.613207827618359 0.7551914120251614 L 1.613207827618359 0.4706226952807916 L 1.5927874753700249 0.4919210000360018 Z M 1.613207827618359 0.7551914120251614 L 1.6336281798666925 0.7267584948553287 L 1.6336281798666925 0.44881200972961804 L 1.613207827618359 0.4706226952807916 Z M 1.6336281798666925 0.7267584948553287 L 1.6540485321150267 0.6976470910168964 L 1.6540485321150267 0.42651966468736413 L 1.6336281798666925 0.44881200972961804 Z M 1.6540485321150267 0.6976470910168964 L 1.6744688843633602 0.6678758166620509 L 1.6744688843633602 0.4037777732959418 L 1.6540485321150267 0.42651966468736413 Z M 1.6744688843633602 0.6678758166620509 L 1.6948892366116937 0.6374628533020347 L 1.6948892366116937 0.38061997819870774 L 1.6744688843633602 0.4037777732959418 Z M 1.6948892366116937 0.6374628533020347 L 1.7153095888600272 0.6064257156659868 L 1.7153095888600272 0.35708163253744385 L 1.6948892366116937 0.38061997819870774 Z M 1.7153095888600272 0.6064257156659868 L 1.7357299411083607 0.574780959797426 L 1.7357299411083607 0.33320003968166784 L 1.7153095888600272 0.35708163253744385 Z M 1.7357299411083607 0.574780959797426 L 1.7561502933566948 0.5425438092375394 L 1.7561502933566948 0.30901477389260507 L 1.7357299411083607 0.33320003968166784 Z M 1.7561502933566948 0.5425438092375394 L 1.7765706456050283 0.5097276666151136 L 1.7765706456050283 0.2845681146544471 L 1.7561502933566948 0.30901477389260507 Z M 1.7765706456050283 0.5097276666151136 L 1.7969909978533614 0.4763434612062851 L 1.7969909978533614 0.25990564416307227 L 1.7765706456050283 0.2845681146544471 Z M 1.7969909978533614 0.4763434612062851 L 1.8174113501016955 0.4423987555084857 L 1.8174113501016955 0.23507708498209717 L 1.7969909978533614 0.25990564416307227 Z M 1.8174113501016955 0.4423987555084857 L 1.837831702350029 0.4078964870163161 L 1.837831702350029 0.21013750173357923 L 1.8174113501016955 0.23507708498209717 Z M 1.837831702350029 0.4078964870163161 L 1.8582520545983632 0.3728331381788777 L 1.8582520545983632 0.18514907389957985 L 1.837831702350029 0.21013750173357923 Z M 1.8582520545983632 0.3728331381788777 L 1.878672406846696 0.337195972253786 L 1.878672406846696 0.1601838020759247 L 1.8582520545983632 0.18514907389957985 Z M 1.878672406846696 0.337195972253786 L 1.8990927590950297 0.300958665341545 L 1.8990927590950297 0.13532781745154165 L 1.878672406846696 0.1601838020759247 Z M 1.8990927590950297 0.300958665341545 L 1.9195131113433637 0.26407401034227734 L 1.9195131113433637 0.11068861882917204 L 1.8990927590950297 0.13532781745154165 Z M 1.9195131113433637 0.26407401034227734 L 1.9399334635916974 0.22646084209195583 L 1.9399334635916974 0.08640808798850641 L 1.9195131113433637 0.11068861882917204 Z M 1.9399334635916974 0.22646084209195583 L 1.9603538158400315 0.18797832491695543 L 1.9603538158400315 0.06268814221165213 L 1.9399334635916974 0.08640808798850641 Z M 1.9603538158400315 0.18797832491695543 L 1.980774168088365 0.1483683646394689 L 1.980774168088365 0.039848261997559156 L 1.9603538158400315 0.06268814221165213 Z M 1.980774168088365 0.1483683646394689 L 2.001194520336698 0.10709822136977348 L 2.001194520336698 0.018482817688854826 L 1.980774168088365 0.039848261997559156 Z M 2.001194520336698 0.10709822136977348 L 2.0216148725850323 0.06274296825636529 L 2.0216148725850323 7.854989989143635e-05 L 2.001194520336698 0.018482817688854826 Z M 2.0216148725850323 0.06274296825636529 L 2.0420352248333655 2.7665942691170354e-09 L 2.0420352248333655 -2.766593779258316e-09 L 2.0216148725850323 7.854989989143635e-05 Z" transform="translate(100, 62.5) scale(48)" />
</svg>
